<svg width="82" height="31" viewBox="0 0 82 31" fill="none" xmlns="http://www.w3.org/2000/svg">
<path d="M6.18624 18.3529C6.18624 19.5686 6.28634 20.5882 6.48654 21.4118C6.68674 22.1961 6.98704 22.8627 7.38745 23.4118C8.4285 24.7451 9.97005 25.4118 12.0121 25.4118C13.1733 25.4118 14.2744 25.2745 15.3154 25C16.3965 24.6863 17.4576 24.3137 18.4986 23.8824C18.9791 23.6863 19.3996 23.5882 19.7599 23.5882C20.5207 23.5882 21.2014 23.8627 21.802 24.4118C22.4026 24.9216 22.7029 25.5686 22.7029 26.3529C22.7029 26.902 22.5828 27.4118 22.3425 27.8824C22.1023 28.3529 21.7019 28.7255 21.1413 29C18.2984 30.3333 15.2554 31 12.0121 31C8.44852 31 5.54559 29.902 3.30333 27.7059C1.10111 25.549 0 22.7059 0 19.1765V11.7647C0 8.27451 1.10111 5.45098 3.30333 3.29412C5.54559 1.09804 8.44852 0 12.0121 0C15.6558 0 18.5587 1.09804 20.7209 3.29412C21.802 4.35294 22.6228 5.60784 23.1834 7.05882C23.784 8.47059 24.0843 10.0392 24.0843 11.7647V14.5294C24.0843 15.5882 23.7039 16.4902 22.9431 17.2353C22.1824 17.9804 21.2614 18.3529 20.1803 18.3529H6.18624ZM17.898 12.7647C17.898 7.98039 15.9361 5.58824 12.0121 5.58824C10.0902 5.58824 8.6287 6.17647 7.62769 7.35294C6.66672 8.4902 6.18624 10.2941 6.18624 12.7647H17.898Z" fill="white"/>
<path d="M31.9048 30.4118C30.9438 30.4118 30.123 30.0784 29.4423 29.4118C28.7617 28.7451 28.4213 27.9412 28.4213 27C28.4213 26.2549 28.6615 25.5686 29.142 24.9412L43.9169 6.35294H31.6646C30.7837 6.35294 30.0429 6.07843 29.4423 5.52941C28.8818 4.98039 28.6015 4.29412 28.6015 3.47059C28.6015 2.64706 28.8818 1.96078 29.4423 1.41176C30.0429 0.862744 30.7837 0.588235 31.6646 0.588235H48.7818C49.7428 0.588235 50.5636 0.921569 51.2443 1.58824C51.925 2.2549 52.2653 3.05882 52.2653 4C52.2653 4.78431 52.0651 5.43137 51.6647 5.94118L36.7697 24.6471H49.3824C50.2633 24.6471 51.0041 24.9216 51.6047 25.4706C52.2053 25.9804 52.5056 26.6471 52.5056 27.4706C52.5056 28.3333 52.2053 29.0392 51.6047 29.5882C51.0441 30.1373 50.3234 30.4118 49.4425 30.4118H31.9048Z" fill="white"/>
<path d="M75.8138 11.2941C75.8138 9.4902 75.2932 8.09804 74.2522 7.11765C73.2512 6.09804 71.8097 5.58824 69.9278 5.58824C68.9268 5.58824 67.9258 5.66667 66.9248 5.82353C65.9638 5.94118 65.0229 6.11765 64.102 6.35294V27.9412C64.102 28.8039 63.8017 29.5294 63.201 30.1176C62.6004 30.7059 61.8797 31 61.0389 31C60.158 31 59.4172 30.7059 58.8166 30.1176C58.216 29.5294 57.9157 28.8039 57.9157 27.9412V5.11765C57.9157 4.29412 58.156 3.56863 58.6364 2.94118C59.1169 2.27451 59.7576 1.80392 60.5584 1.52941C63.5614 0.509804 66.6846 0 69.9278 0C73.5715 0 76.4744 1.09804 78.6366 3.29412C79.7177 4.35294 80.5385 5.60784 81.0991 7.05882C81.6997 8.47059 82 10.0392 82 11.7647V27.9412C82 28.8039 81.6997 29.5294 81.0991 30.1176C80.4985 30.7059 79.7577 31 78.8769 31C77.996 31 77.2552 30.7059 76.6546 30.1176C76.094 29.5294 75.8138 28.8039 75.8138 27.9412V11.2941Z" fill="white"/>
</svg>
